<?xml version="1.0" encoding="UTF-8"?>
<svg version="1.1" xmlns="http://www.w3.org/2000/svg" width="1024" height="1024">
<path d="M0 0 C337.92 0 675.84 0 1024 0 C1024 337.92 1024 675.84 1024 1024 C686.08 1024 348.16 1024 0 1024 C0 686.08 0 348.16 0 0 Z " fill="#FFFFFF" transform="translate(0,0)"/>
<path d="M0 0 C4.56862173 2.956167 8.57261579 6.43887709 12.640625 10.02734375 C16.2988944 13.22898555 20.1508599 16.13122659 24.05859375 19.01953125 C29.787784 23.26388297 35.44199942 27.58270131 41.03173828 32.0090332 C44.41682108 34.68755866 47.82648215 37.32811567 51.26513672 39.9375 C71.10808182 55.03602422 71.10808182 55.03602422 72.5625 65.0625 C73.01943717 73.35542348 71.02468476 78.43906456 66.12109375 85.01953125 C65.46109375 86.00953125 64.80109375 86.99953125 64.12109375 88.01953125 C64.971875 88.39851563 64.971875 88.39851563 65.83984375 88.78515625 C73.05106325 92.68711749 79.51014969 99.18669908 82.12109375 107.01953125 C83.42079156 117.28419007 81.25616573 123.81888228 75.12109375 132.01953125 C71.75415203 136.24421097 68.22952028 140.32213606 64.60888672 144.33056641 C63.5749625 145.50429265 62.57047133 146.70434044 61.59033203 147.92333984 C57.88945365 152.49946591 55.315388 154.59570729 49.32421875 155.390625 C48.3496875 155.41253906 47.37515625 155.43445313 46.37109375 155.45703125 C45.406875 155.49699219 44.44265625 155.53695312 43.44921875 155.578125 C35.56319522 154.25453185 29.32750193 148.87241662 23.37109375 143.83203125 C21.97764621 142.67707667 20.58310008 141.52344635 19.1875 140.37109375 C18.50316895 139.80422852 17.81883789 139.23736328 17.11376953 138.65332031 C8.71557552 131.76766553 -0.05749433 125.34831976 -8.87890625 119.01953125 C-14.37930691 124.91378776 -19.49708947 130.98071497 -24.43432617 137.34545898 C-28.21001227 142.20084171 -32.08579765 146.96599372 -36.00390625 151.70703125 C-36.60332031 152.4326123 -37.20273438 153.15819336 -37.8203125 153.90576172 C-39.50573651 155.94432661 -41.19226964 157.98196963 -42.87890625 160.01953125 C-48.27072322 166.54691029 -53.56336628 173.14027306 -58.77832031 179.80908203 C-62.42520479 184.46470658 -66.14438354 189.05372706 -69.90625 193.6171875 C-71.28836265 195.30035439 -72.6542613 196.99690541 -74.0078125 198.703125 C-75.87890625 201.01953125 -75.87890625 201.01953125 -77.87890625 203.01953125 C-70.80359133 209.01123938 -63.62834537 214.81108726 -56.2578125 220.43359375 C-52.62877846 223.20314782 -49.03193588 226.01281119 -45.44140625 228.83203125 C-44.87437988 229.27603271 -44.30735352 229.72003418 -43.72314453 230.17749023 C-42.10266924 231.45113115 -40.48989085 232.73391548 -38.87890625 234.01953125 C-38.33645264 234.44524414 -37.79399902 234.87095703 -37.23510742 235.30957031 C-34.28390731 237.67777817 -31.98226758 239.87667413 -30.06640625 243.14453125 C-29.66808594 243.80710937 -29.26976562 244.4696875 -28.859375 245.15234375 C-26.64569339 249.36804021 -26.12968215 253.3668496 -26.87890625 258.01953125 C-29.83807269 266.61809275 -34.9779884 272.85495916 -41.19140625 279.25 C-44.04837007 282.19416765 -46.70493581 285.2602058 -49.34375 288.3984375 C-52.65367493 291.89365085 -55.63930321 293.81713749 -60.515625 294.2578125 C-74.27639378 294.59258152 -81.04061472 287.71802071 -90.87890625 279.01953125 C-93.65628752 281.67615681 -95.9166969 284.38377819 -98.12890625 287.51953125 C-102.37479219 293.07114125 -107.12813466 295.55080051 -113.87890625 297.01953125 C-123.63368376 297.995009 -130.50087909 293.63028859 -137.75390625 287.70703125 C-139.04239232 286.64019873 -140.33012218 285.57245238 -141.6171875 284.50390625 C-146.26862019 280.65429301 -151.09484702 277.05581646 -155.94140625 273.45703125 C-162.23500269 268.76698926 -168.49380766 264.04701843 -174.63500977 259.15869141 C-177.89871806 256.56252704 -181.19434025 254.0185816 -184.52734375 251.51171875 C-185.33155762 250.90142822 -186.13577148 250.2911377 -186.96435547 249.66235352 C-188.52453913 248.47967436 -190.09089511 247.30507432 -191.66455078 246.14038086 C-197.36447225 241.79627833 -202.56377719 236.96491843 -204.87890625 230.01953125 C-206.01634823 217.43308306 -202.31290585 211.40671325 -194.48828125 201.92578125 C-193.9571875 201.29671875 -193.42609375 200.66765625 -192.87890625 200.01953125 C-193.42675781 199.78363281 -193.97460938 199.54773438 -194.5390625 199.3046875 C-202.24587917 195.07172809 -210.22724936 187.58535482 -212.87890625 179.01953125 C-214.24022346 170.58851626 -212.73358647 163.98058099 -207.87890625 157.01953125 C-204.52681451 152.75211724 -200.95379094 148.6820756 -197.31689453 144.65673828 C-195.91683775 143.06271778 -194.61606368 141.41621214 -193.30859375 139.74609375 C-189.04041709 134.95640354 -183.61396395 133.41025378 -177.37890625 132.51953125 C-168.66775679 133.76398117 -161.99174489 137.9583985 -155.31640625 143.45703125 C-153.75199742 144.71050373 -152.18687525 145.96308637 -150.62109375 147.21484375 C-149.83573242 147.8480957 -149.05037109 148.48134766 -148.24121094 149.13378906 C-144.52529229 152.1000722 -140.73248753 154.96289723 -136.94140625 157.83203125 C-131.12528613 162.24790008 -125.44696211 166.77616161 -119.8828125 171.5078125 C-118.03116187 173.22027743 -118.03116187 173.22027743 -115.87890625 173.01953125 C-114.19422895 171.05560872 -112.62393924 169.08135083 -111.06640625 167.01953125 C-110.06763724 165.72300911 -109.06758707 164.42747313 -108.06640625 163.1328125 C-107.54304688 162.45428223 -107.0196875 161.77575195 -106.48046875 161.07666016 C-103.88938995 157.74854584 -101.23116618 154.47625749 -98.56640625 151.20703125 C-98.02588623 150.54316406 -97.48536621 149.87929688 -96.9284668 149.1953125 C-92.34632288 143.57645096 -87.73516992 137.98156085 -83.12109375 132.38891602 C-78.53309047 126.8244293 -73.97723762 121.23449853 -69.43505859 115.63256836 C-66.30432272 111.77152052 -63.16034279 107.92209533 -60.00390625 104.08203125 C-59.3078125 103.22738281 -58.61171875 102.37273437 -57.89453125 101.4921875 C-56.51882004 99.80454177 -55.13291942 98.12516382 -53.73828125 96.453125 C-53.0834375 95.65003906 -52.42859375 94.84695313 -51.75390625 94.01953125 C-51.17382812 93.31828125 -50.59375 92.61703125 -49.99609375 91.89453125 C-49.62742188 91.27578125 -49.25875 90.65703125 -48.87890625 90.01953125 C-50.22740045 85.97404865 -52.96836214 84.3697413 -56.25390625 81.89453125 C-57.54241413 80.904618 -58.83016671 79.9137209 -60.1171875 78.921875 C-60.75736816 78.43058105 -61.39754883 77.93928711 -62.05712891 77.43310547 C-64.56028064 75.49083147 -67.00196171 73.4784912 -69.44140625 71.45703125 C-72.31700669 69.07839573 -75.21241614 66.75076311 -78.203125 64.51953125 C-93.78132524 52.89020301 -93.78132524 52.89020301 -96.87890625 45.01953125 C-98.12543043 36.3600491 -97.31607539 29.96887541 -92.140625 22.8828125 C-91.39425781 21.93792969 -90.64789063 20.99304688 -89.87890625 20.01953125 C-88.98749853 18.82707647 -88.09829063 17.63297503 -87.2109375 16.4375 C-76.64323408 2.40169517 -76.64323408 2.40169517 -69.87890625 -0.98046875 C-58.4366253 -2.43141609 -51.23753198 1.60507357 -42.37890625 8.39453125 C-41.77046875 8.89726562 -41.16203125 9.4 -40.53515625 9.91796875 C-38.79409946 11.296428 -38.79409946 11.296428 -35.87890625 11.01953125 C-34.13665859 9.1573189 -34.13665859 9.1573189 -32.50390625 6.76953125 C-23.58940966 -5.16016272 -13.01159361 -7.07764392 0 0 Z " fill="#28AFAC" transform="translate(285.87890625,325.98046875)"/>
<path d="M0 0 C1.19874756 -0.0071553 2.39749512 -0.01431061 3.63256836 -0.02168274 C4.96803258 -0.02452311 6.30349708 -0.02723483 7.63896179 -0.02983093 C9.03999501 -0.03609475 10.44102656 -0.04274148 11.84205627 -0.04974365 C15.65412967 -0.0671606 19.46619052 -0.07770725 23.27829385 -0.08594918 C25.65932893 -0.09109778 28.04036011 -0.09717357 30.42139244 -0.10346031 C37.86926558 -0.12251418 45.31712879 -0.136745 52.76502162 -0.14507228 C61.36579472 -0.154847 69.96631061 -0.18117165 78.56699306 -0.22157317 C85.21249401 -0.25172032 91.85792118 -0.2665398 98.5034892 -0.26985329 C102.47369775 -0.27220536 106.44363159 -0.28118575 110.41376686 -0.30631447 C114.14929386 -0.32957603 117.8843649 -0.33383646 121.61994553 -0.32355309 C123.64315438 -0.32282079 125.66633998 -0.34192544 127.68945312 -0.36161804 C128.89666016 -0.35467422 130.10386719 -0.34773041 131.34765625 -0.34057617 C132.39498082 -0.34296453 133.44230539 -0.34535288 134.52136707 -0.34781361 C138.09826224 0.27496081 139.78526794 1.64139908 142.36430359 4.14717102 C142.9954071 6.2660675 142.9954071 6.2660675 142.99320984 8.51826477 C142.99514343 9.34004211 142.99707703 10.16181946 142.99906921 11.00849915 C142.97522156 11.85863586 142.9513739 12.70877258 142.92680359 13.58467102 C142.93776062 14.43094055 142.94871765 15.27721008 142.96000671 16.14912415 C142.91109145 20.31344332 142.71445957 22.59078821 140.45414734 26.18232727 C137.46994203 28.98803806 135.89640712 29.27192509 131.9098053 29.26742554 C130.97308487 29.2688002 130.03636444 29.27017487 129.07125854 29.27159119 C128.04051712 29.26799591 127.0097757 29.26440063 125.94779968 29.26069641 C124.8648613 29.26084244 123.78192291 29.26098846 122.66616821 29.26113892 C119.07333906 29.26044017 115.48056123 29.25264954 111.88774109 29.24482727 C109.4019524 29.24296296 106.91616334 29.24153912 104.43037415 29.24053955 C98.54783962 29.23710667 92.66532416 29.22921875 86.78279746 29.21919006 C79.42976113 29.20692594 72.07672252 29.20154728 64.72367859 29.19599915 C51.60387722 29.1852637 38.48409223 29.16818853 25.36430359 29.14717102 C25.36430359 34.75717102 25.36430359 40.36717102 25.36430359 46.14717102 C27.37053551 46.14050919 27.37053551 46.14050919 29.41729736 46.13371277 C42.02684339 46.09315511 54.63637616 46.063181 67.24597263 46.04354668 C73.72855919 46.03311313 80.21109306 46.01896161 86.69364929 45.99629211 C92.95060684 45.97454867 99.20751373 45.96259916 105.46450615 45.95741653 C107.85069005 45.9537235 110.23687121 45.94651195 112.62303352 45.93571091 C115.96727092 45.92117625 119.31129942 45.91919393 122.65556335 45.92012024 C123.64027618 45.91292969 124.62498901 45.90573914 125.63954163 45.89833069 C131.49825735 45.91587031 137.26318978 45.97639136 142.23930359 49.45967102 C145.81406285 54.82180991 144.87043572 63.24371363 144.07914734 69.34638977 C143.55180359 71.20967102 143.55180359 71.20967102 141.36430359 74.14717102 C128.63902098 79.34977275 110.54337054 76.06831653 96.92680359 75.64717102 C95.30897112 75.59879028 93.69113259 75.55061217 92.07328796 75.50263977 C88.17021954 75.38647535 84.26724247 75.26760639 80.36430359 75.14717102 C80.36430359 79.43717102 80.36430359 83.72717102 80.36430359 88.14717102 C81.73826546 88.13717827 81.73826546 88.13717827 83.13998413 88.12698364 C91.77677526 88.06684534 100.41349595 88.02118274 109.05044842 87.9917345 C113.49068835 87.97608585 117.93075511 87.95486225 122.37089539 87.92085266 C126.65676384 87.88823058 130.94246583 87.87031198 135.22844887 87.86253929 C136.8627109 87.85700089 138.49696394 87.84618567 140.13115501 87.82998085 C142.42220545 87.8081683 144.71257013 87.80520563 147.00370789 87.80659485 C148.30720688 87.79993301 149.61070587 87.79327118 150.95370483 87.78640747 C154.62354433 88.17459278 156.46109525 88.91278325 159.36430359 91.14717102 C161.78576429 94.77936207 161.66299875 96.6387566 161.67680359 100.95967102 C161.6935614 102.16236633 161.71031921 103.36506165 161.72758484 104.60420227 C161.2551911 109.21131112 160.02356023 112.50272564 156.70213318 115.79450417 C153.45298457 117.67445968 150.97332925 117.52483598 147.2285614 117.52812195 C146.50926075 117.53280192 145.7899601 117.53748189 145.04886246 117.54230368 C142.63819704 117.55427138 140.22809825 117.54478981 137.81742859 117.53535461 C136.08935718 117.53941954 134.36128837 117.54476097 132.63322449 117.55128479 C127.93906291 117.56497365 123.24509891 117.55965327 118.55093384 117.55014753 C113.64138756 117.54255908 108.73185834 117.54959428 103.8223114 117.55430603 C95.57716328 117.55976595 87.33209573 117.55256575 79.08695984 117.5382843 C69.55068123 117.52195734 60.01459502 117.52724568 50.47832108 117.54376352 C42.29478939 117.55737163 34.11131568 117.55930135 25.92777634 117.55144751 C21.03830053 117.54676728 16.1489152 117.54615575 11.25944519 117.55605698 C6.66294332 117.56471454 2.06668984 117.55872691 -2.52978516 117.54137421 C-4.21806424 117.53740289 -5.90636418 117.53855442 -7.59463501 117.5451622 C-9.89669157 117.55334249 -12.1979488 117.54309944 -14.49995422 117.52812195 C-15.7889563 117.52699087 -17.07795837 117.52585979 -18.40602112 117.52469444 C-21.84926537 117.1222065 -23.24223519 116.61048013 -25.63569641 114.14717102 C-26.97395776 110.13238698 -26.89833333 106.41479094 -26.94819641 102.20967102 C-26.99170227 100.99247375 -26.99170227 100.99247375 -27.03608704 99.75068665 C-27.09996634 93.76077314 -27.09996634 93.76077314 -24.74116516 90.64326477 C-21.06452713 88.03073719 -18.85603779 88.02507912 -14.35005188 88.03364563 C-13.70602417 88.0334996 -13.06199646 88.03335358 -12.39845276 88.03320312 C-10.26656239 88.03390062 -8.13475905 88.04168536 -6.00288391 88.04951477 C-4.52600655 88.05137953 -3.04912857 88.05280316 -1.57225037 88.05380249 C2.31742558 88.0576231 6.20706426 88.0674495 10.09672546 88.07850647 C14.06481929 88.08873038 18.03291914 88.09330221 22.00102234 88.0983429 C29.78880172 88.10907217 37.57654269 88.12666529 45.36430359 88.14717102 C45.36430359 83.85717102 45.36430359 79.56717102 45.36430359 75.14717102 C43.82903015 75.25545227 43.82903015 75.25545227 42.26274109 75.36592102 C32.35310326 76.0058381 22.4400973 76.30417197 12.51109314 76.37934875 C10.51071837 76.39698225 8.51048978 76.42922445 6.51029968 76.46162415 C5.2684491 76.46613586 4.02659851 76.47064758 2.74711609 76.47529602 C1.63739441 76.48464172 0.52767273 76.49398743 -0.61567688 76.50361633 C-4.31210467 76.06733625 -6.98536371 74.79750373 -9.63569641 72.14717102 C-10.82914434 64.23878257 -10.80882885 56.19642893 -10.83882141 48.21748352 C-10.84452148 47.02412384 -10.85022156 45.83076416 -10.85609436 44.60124207 C-10.86547831 42.09865693 -10.87205179 39.59605981 -10.87593079 37.09346008 C-10.88572191 33.2621915 -10.91684177 29.43144106 -10.94819641 25.60029602 C-10.95471962 23.16019501 -10.95997276 20.72009021 -10.96382141 18.27998352 C-10.97616821 17.13723969 -10.98851501 15.99449585 -11.00123596 14.81712341 C-10.99823486 13.75186432 -10.99523376 12.68660522 -10.99214172 11.58906555 C-10.99578735 10.65627777 -10.99943298 9.72348999 -11.00318909 8.76243591 C-10.55952153 5.6050718 -9.4903743 3.71892182 -7.63569641 1.14717102 C-4.98202255 -0.17966591 -2.97291964 0.01214375 0 0 Z " fill="#0B1A35" transform="translate(651.6356964111328,314.8528289794922)"/>
<path d="M0 0 C1.29164063 -0.03738281 2.58328125 -0.07476563 3.9140625 -0.11328125 C7.375 0.3125 7.375 0.3125 9.56292725 1.95501709 C11.8923007 4.98550144 11.85996695 6.661565 11.82910156 10.45800781 C11.82864838 12.31948456 11.82864838 12.31948456 11.82818604 14.21856689 C11.80776115 15.56759282 11.78689719 16.91661217 11.765625 18.265625 C11.75816102 19.64995506 11.75246883 21.03429572 11.74847412 22.41864014 C11.73322974 26.05539317 11.69395952 29.69150325 11.6496582 33.32800293 C11.60867892 37.04149682 11.59045751 40.75509499 11.5703125 44.46875 C11.52746281 51.75032651 11.45712421 59.03124112 11.375 66.3125 C16.655 66.3125 21.935 66.3125 27.375 66.3125 C27.34881592 64.4552832 27.32263184 62.59806641 27.2956543 60.68457031 C27.21500442 54.54591978 27.15756623 48.4073947 27.11593914 42.26836014 C27.08985294 38.5464441 27.05447508 34.82510157 26.99780273 31.10351562 C26.94344453 27.51138431 26.9135721 23.91980428 26.90061378 20.3272934 C26.89138041 18.95729645 26.87334894 17.58732944 26.84634972 16.21756744 C26.81002104 14.29801401 26.80795731 12.37790489 26.80737305 10.45800781 C26.79071846 8.81919647 26.79071846 8.81919647 26.77372742 7.14727783 C27.375 4.3125 27.375 4.3125 29.77095032 1.96174622 C33.79613864 -0.58756252 37.22685921 -0.31050413 41.875 -0.25 C42.71675781 -0.27384766 43.55851563 -0.29769531 44.42578125 -0.32226562 C48.82584802 -0.31187177 50.80039463 -0.12067544 54.40625 2.59765625 C57.62350376 7.03414705 57.50129349 10.69416453 57.50871277 16.11088562 C57.51097833 16.79399002 57.51324388 17.47709443 57.51557809 18.18089896 C57.52190651 20.46916795 57.52108946 22.75737753 57.52026367 25.0456543 C57.52325597 26.68679379 57.52665866 28.32793257 57.53044128 29.96907043 C57.53928034 34.42797711 57.54161942 38.88686459 57.54225707 43.34577918 C57.54296786 46.13323462 57.54510278 48.92068519 57.54775429 51.70813942 C57.55700881 61.43783503 57.56108922 71.16751693 57.56030273 80.8972168 C57.55970256 89.95733994 57.57024228 99.01740343 57.5860464 108.07751149 C57.59913988 115.86195997 57.60448584 123.64638901 57.60384732 131.43084842 C57.60359278 136.07734543 57.60641958 140.72378948 57.61702538 145.3702755 C57.62673627 149.74430414 57.62676508 154.11822952 57.61950874 158.49226189 C57.61846647 160.09298097 57.62080445 161.69370658 57.6268692 163.29441452 C57.69849685 183.51833468 57.69849685 183.51833468 53.98923016 187.97898388 C50.25181869 191.06646085 45.60121973 190.60200436 41 190.6875 C40.24460937 190.72488281 39.48921875 190.76226563 38.7109375 190.80078125 C37.97359375 190.81238281 37.23625 190.82398438 36.4765625 190.8359375 C35.80963379 190.85575684 35.14270508 190.87557617 34.45556641 190.89599609 C31.01483174 189.93104 29.58336544 188.0755519 27.375 185.3125 C26.67178966 182.39338846 26.74135349 179.56530421 26.80737305 176.57495117 C26.80664291 175.70615326 26.80591278 174.83735535 26.80516052 173.94223022 C26.80863547 171.07933449 26.84749166 168.21807915 26.88671875 165.35546875 C26.89604722 163.36722197 26.90316317 161.37896368 26.90815735 159.39070129 C26.92722441 154.16419601 26.97632309 148.93838835 27.03167725 143.7121582 C27.08287578 138.37656084 27.10567271 133.04085047 27.13085938 127.70507812 C27.18444179 117.24057935 27.2697514 106.77659774 27.375 96.3125 C22.425 96.3125 17.475 96.3125 12.375 96.3125 C12.38166183 97.39133957 12.38832367 98.47017914 12.39518738 99.58171082 C12.45600365 109.7489771 12.50097516 119.91620648 12.53043652 130.0836134 C12.54609208 135.31078358 12.56732852 140.53780691 12.60131836 145.76489258 C12.63391546 150.80936947 12.65185384 155.85370511 12.65963173 160.89827919 C12.66517459 162.82281022 12.67599841 164.74733353 12.69219017 166.67180443 C12.71396904 169.36755451 12.71696673 172.06272101 12.71557617 174.75854492 C12.726362 175.55408279 12.73714783 176.34962067 12.7482605 177.16926575 C12.72276568 181.73722726 12.19649967 184.67319558 9.375 188.3125 C5.89560362 190.92401973 2.16446398 190.61243222 -2.0625 190.625 C-3.36058594 190.64175781 -4.65867187 190.65851563 -5.99609375 190.67578125 C-9.83523591 190.29145378 -11.67715043 189.76814964 -14.625 187.3125 C-18.91205963 178.44380819 -17.77186184 167.21707216 -17.75439453 157.58789062 C-17.75614685 156.37600067 -17.75789917 155.16411072 -17.75970459 153.91549683 C-17.7633259 150.62049307 -17.76251012 147.32553018 -17.7593255 144.03052711 C-17.75675818 140.53202873 -17.75915268 137.0335327 -17.76071167 133.53503418 C-17.76252655 127.63760911 -17.76015103 121.74019659 -17.75537109 115.84277344 C-17.75058083 109.86555153 -17.75051534 103.88835465 -17.75537109 97.91113281 C-17.79966875 41.38480771 -17.79966875 41.38480771 -17.35299301 20.64317322 C-17.32127249 19.13322316 -17.29404204 17.62317079 -17.27173233 16.11305237 C-17.24017948 14.12260191 -17.18702524 12.13252697 -17.13232422 10.14257812 C-17.10693573 9.07334106 -17.08154724 8.004104 -17.0553894 6.90246582 C-16.56699102 3.9634178 -16.01876942 3.03339116 -13.625 1.3125 C-9.12905191 0.20470876 -4.61742685 0.08790692 0 0 Z " fill="#0C1B36" transform="translate(500.625,534.6875)"/>
<path d="M0 0 C6.43838971 5.92570312 11.39544628 13.98523879 11.97265625 22.8515625 C12.26867306 34.38569309 11.24575107 42.3183021 3.609375 51.44140625 C-9.62147322 65.2118486 -29.54793937 69.04682668 -48.02012634 69.55235291 C-51.65765438 69.60325596 -55.29313776 69.60757437 -58.9309082 69.58251953 C-61.69728018 69.56644022 -64.46218753 69.5824658 -67.22851562 69.6015625 C-88.19631939 69.62672806 -111.14917078 67.66620346 -127.0703125 52.46875 C-134.23508882 44.64452909 -136.54910004 36.70203449 -136.41015625 26.28125 C-135.92844472 15.9830387 -132.13338423 7.48778682 -124.515625 0.37890625 C-95.89947067 -22.6220027 -28.83674983 -23.01968133 0 0 Z " fill="#0B1A35" transform="translate(579.265625,326.80859375)"/>
<path d="M0 0 C1.28002396 -0.00554901 2.56004791 -0.01109802 3.87886047 -0.01681519 C7.38739813 -0.03106311 10.89515204 -0.01400186 14.40361476 0.00946999 C18.07681783 0.0295819 21.74998844 0.02369918 25.42323303 0.0213623 C31.59283364 0.02141588 37.76212804 0.04117291 43.93164062 0.07324219 C51.06059801 0.110119 58.18915402 0.11892006 65.31819433 0.11194468 C72.1793178 0.10563475 79.04030387 0.11640403 85.90139961 0.13591003 C88.81955488 0.1440767 91.73763985 0.14679493 94.65580559 0.1452179 C98.73298199 0.14417407 102.80963131 0.16837249 106.88671875 0.1953125 C108.09675568 0.1923819 109.3067926 0.18945129 110.55349731 0.18643188 C111.66525833 0.19778168 112.77701935 0.20913147 113.92247009 0.2208252 C114.88607924 0.22455391 115.8496884 0.22828262 116.84249783 0.23212433 C120.03316535 0.69070614 121.92989923 1.70354066 124.50805664 3.61523438 C126.20030366 8.91667855 125.68773792 14.99092147 125.71118164 20.52539062 C125.71688171 21.57045273 125.72258179 22.61551483 125.72845459 23.69224548 C125.73787434 25.8951619 125.7444265 28.09809222 125.74829102 30.30102539 C125.75803335 33.66968129 125.78910047 37.03773612 125.82055664 40.40625 C125.82708385 42.5501266 125.83233542 44.69400754 125.83618164 46.83789062 C125.84852844 47.84320328 125.86087524 48.84851593 125.87359619 49.8842926 C125.84506091 58.83398041 125.84506091 58.83398041 122.50805664 62.61523438 C109.76535257 66.8628024 93.44723146 64.79717408 80.17602539 64.81835938 C78.97548334 64.82118675 77.77494129 64.82401413 76.53801918 64.82692719 C70.19933483 64.84182747 63.86067275 64.85111789 57.52197266 64.85546875 C50.99445051 64.86097669 44.46713447 64.88507974 37.93967724 64.9134407 C32.89611714 64.93208251 27.85260692 64.93727326 22.80901527 64.93880463 C20.40215221 64.94182216 17.99528984 64.94982012 15.58846092 64.96298981 C12.22450354 64.98010159 8.86105391 64.97815865 5.49707031 64.97167969 C4.51349045 64.98089447 3.52991058 64.99010925 2.51652527 64.99960327 C-3.4492947 64.96372791 -9.12728347 64.44187831 -14.49194336 61.61523438 C-16.68471152 58.32608213 -16.75078639 57.31152114 -16.7824707 53.48876953 C-16.80161026 51.92166733 -16.80161026 51.92166733 -16.82113647 50.32290649 C-16.82336212 49.19476532 -16.82558777 48.06662415 -16.82788086 46.90429688 C-16.83453766 45.7440097 -16.84119446 44.58372253 -16.84805298 43.38827515 C-16.85818522 40.93204333 -16.86286982 38.47578395 -16.86254883 36.01953125 C-16.86691816 32.26190779 -16.90322335 28.50546214 -16.94116211 24.74804688 C-16.94703085 22.36263423 -16.95099986 19.977216 -16.95288086 17.59179688 C-16.96725189 16.46770416 -16.98162292 15.34361145 -16.99642944 14.18545532 C-16.99027618 13.1344162 -16.98412292 12.08337708 -16.9777832 11.00048828 C-16.98063324 10.07910065 -16.98348328 9.15771301 -16.98641968 8.20840454 C-15.18616294 -1.2326382 -7.94268769 -0.0869146 0 0 Z " fill="#0A1935" transform="translate(617.491943359375,661.384765625)"/>
<path d="M0 0 C5.60120943 5.98045798 8.12486744 13.71574635 7.94140625 21.8125 C6.76715319 29.23211669 2.73699155 36.81680686 -3.375 41.30859375 C-20.22212276 51.55932469 -40.42046081 54.61235825 -59.890625 54.875 C-61.17956161 54.89379211 -61.17956161 54.89379211 -62.49453735 54.91296387 C-114.53396002 55.52608365 -114.53396002 55.52608365 -132.03515625 39.30859375 C-137.69168288 32.71685472 -139.8990288 25.80667377 -139.7734375 17.25390625 C-138.85288754 8.32457165 -133.15254608 1.74492435 -126.6796875 -4.01953125 C-98.10258233 -25.59244398 -26.44114485 -23.87047799 0 0 Z " fill="#0B1934" transform="translate(783.5,453.3984375)"/>
<path d="M0 0 C1.30130859 -0.020625 2.60261719 -0.04125 3.94335938 -0.0625 C5.18794922 -0.06765625 6.43253906 -0.0728125 7.71484375 -0.078125 C8.85945068 -0.0874707 10.00405762 -0.09681641 11.18334961 -0.10644531 C14.0625 0.25 14.0625 0.25 15.89672852 1.64550781 C19.62261793 6.77358011 18.64490055 14.1576199 18.0625 20.25 C17.1297977 25.35749156 15.63347271 30.30564392 14.0625 35.25 C15.04992187 36.04664063 16.03734375 36.84328125 17.0546875 37.6640625 C18.34951445 38.73370216 19.6437547 39.80405232 20.9375 40.875 C21.58847656 41.39707031 22.23945312 41.91914062 22.91015625 42.45703125 C26.82523002 45.72631965 28.95789948 48.06926796 30.0625 53.25 C41.85337317 41.06490311 48.70282343 26.68220096 48.47216797 9.62988281 C48.51243555 6.35423797 48.88798177 4.49268941 50.8125 1.81640625 C55.95858742 -0.66385944 60.99107022 -0.32695749 66.625 -0.25 C68.32946289 -0.27320313 68.32946289 -0.27320313 70.06835938 -0.296875 C71.70708008 -0.28914062 71.70708008 -0.28914062 73.37890625 -0.28125 C74.37349854 -0.27673828 75.36809082 -0.27222656 76.39282227 -0.26757812 C79.7550207 0.38426099 80.93720339 1.62282464 83.0625 4.25 C85.54968907 11.21127056 83.34650523 19.24073859 82.0625 26.25 C81.72655501 28.24956297 81.39242819 30.24943545 81.0625 32.25 C81.8153125 32.76046875 82.568125 33.2709375 83.34375 33.796875 C89.90305536 38.28649663 96.36998918 42.88349196 102.75 47.625 C103.44480469 48.13643555 104.13960937 48.64787109 104.85546875 49.17480469 C105.83 49.90425293 105.83 49.90425293 106.82421875 50.6484375 C107.40131592 51.07817871 107.97841309 51.50791992 108.57299805 51.95068359 C110.9997399 54.06756937 112.00207161 55.82518844 112.453125 58.99609375 C111.9526256 63.16525379 110.14476667 65.93839007 107.8125 69.3125 C107.41675781 69.91126953 107.02101563 70.51003906 106.61328125 71.12695312 C105.82654733 72.30447455 105.02135472 73.46989452 104.19726562 74.62158203 C102.90454803 76.42430916 102.90454803 76.42430916 101.390625 79.18359375 C98.19103755 82.02349603 95.84317939 82.028986 91.65283203 81.81005859 C87.12471504 80.83102934 84.31512242 78.16352773 81 75.0625 C75.66977871 70.26690472 70.47944197 66.49416702 64.0625 63.25 C63.62752197 63.77207031 63.19254395 64.29414062 62.74438477 64.83203125 C51.79148957 77.88550521 51.79148957 77.88550521 45.0625 81.25 C41.54793854 81.51919004 38.02370435 81.48168315 34.5 81.5 C33.53513672 81.520625 32.57027344 81.54125 31.57617188 81.5625 C22.47566288 81.61165873 15.4867099 80.10137109 8.5 74 C7.58476563 73.21238281 6.66953125 72.42476562 5.7265625 71.61328125 C4.84742188 70.83339844 3.96828125 70.05351563 3.0625 69.25 C2.24523437 68.54230469 1.42796875 67.83460938 0.5859375 67.10546875 C-1.26617013 65.49878174 -3.1069937 63.88119616 -4.9375 62.25 C-5.17339844 62.81976562 -5.40929687 63.38953125 -5.65234375 63.9765625 C-9.70401008 71.14394792 -18.68655641 77.48327606 -25.9375 81.25 C-31.93571469 82.81641275 -38.11773599 82.96876337 -44.125 81.4375 C-49.35183336 77.37218516 -53.28217533 71.39482621 -54.63671875 64.89453125 C-54.73597656 64.02183594 -54.83523438 63.14914062 -54.9375 62.25 C-54.34324219 61.8375 -53.74898437 61.425 -53.13671875 61 C-51.37410837 59.77192932 -49.61531452 58.53837139 -47.859375 57.30078125 C-45.9638026 55.97033271 -44.05802328 54.65426507 -42.140625 53.35546875 C-30.10712703 45.01020392 -20.58437256 34.56647337 -17.625 19.8125 C-16.84247462 14.50527342 -16.53329115 9.16056189 -16.28125 3.8046875 C-16.1678125 2.96164062 -16.054375 2.11859375 -15.9375 1.25 C-11.36536761 -1.03606619 -5.01983247 0.01983144 0 0 Z " fill="#0B1A35" transform="translate(640.9375,534.75)"/>
<path d="M0 0 C9.18409251 7.6048579 15.61929768 18.5341257 16.81738281 30.52783203 C17.97847444 49.0432272 13.72613716 63.17970247 1.33984375 77.25 C-1.99208549 80.84303443 -5.46484099 84.26701624 -8.97265625 87.6875 C-19.12146743 97.92171492 -23.32556493 105.12870099 -24.9375 119.3828125 C-25.41015625 123.25 -25.41015625 123.25 -26.41015625 124.25 C-30.69440182 124.55918555 -34.99112688 124.5284204 -39.28515625 124.5625 C-40.49558594 124.59150391 -41.70601562 124.62050781 -42.953125 124.65039062 C-44.11199219 124.65876953 -45.27085937 124.66714844 -46.46484375 124.67578125 C-47.53202637 124.69036377 -48.59920898 124.70494629 -49.69873047 124.7199707 C-52.41015625 124.25 -52.41015625 124.25 -54.24023438 122.40063477 C-58.04868911 115.39965861 -57.48690603 104.63940344 -55.64453125 97.12890625 C-50.73965323 84.12407121 -40.92990547 74.35411515 -31.03198242 64.98144531 C-24.74268684 58.93889494 -19.36785636 52.62131429 -19.09765625 43.5625 C-19.16609509 38.35354391 -20.25256521 34.43115266 -23.41015625 30.25 C-30.0564876 24.9600628 -36.14926925 24.40582177 -44.41015625 25.25 C-49.32199993 26.57606248 -53.0597989 28.36903164 -56.0703125 32.5625 C-58.5304418 37.26758694 -60.10090632 42.12210445 -61.41015625 47.25 C-61.74015625 47.58 -62.07015625 47.91 -62.41015625 48.25 C-68.9406909 47.6327616 -75.3918715 46.45726341 -81.84765625 45.3125 C-83.35489258 45.05823242 -83.35489258 45.05823242 -84.89257812 44.79882812 C-86.3224707 44.54456055 -86.3224707 44.54456055 -87.78125 44.28515625 C-88.6467749 44.1344165 -89.5122998 43.98367676 -90.40405273 43.82836914 C-91.06606689 43.63750732 -91.72808105 43.44664551 -92.41015625 43.25 C-95.4951447 37.0800231 -93.39112477 29.30230483 -91.34765625 23.125 C-86.61880474 10.99158827 -77.33380342 0.77031631 -65.3671875 -4.65234375 C-44.41573004 -12.42956904 -18.7996829 -13.65033701 0 0 Z " fill="#0B1A35" transform="translate(882.41015625,540.75)"/>
<path d="M0 0 C9.76317224 9.28380208 15.82270073 21.93985092 16.49560547 35.45678711 C16.97962882 55.2997445 16.97962882 55.2997445 14.38671875 63.26953125 C13.92652344 64.708125 13.92652344 64.708125 13.45703125 66.17578125 C9.94566338 75.76544799 3.66738409 84.53449791 -5.61328125 89.26953125 C-12.56323517 91.88019428 -19.02701042 92.82169496 -26.42578125 92.76953125 C-27.38701904 92.76308594 -28.34825684 92.75664063 -29.33862305 92.75 C-40.67040559 92.45995522 -49.47842414 89.45705633 -57.74609375 81.37109375 C-67.60187611 70.2781839 -68.81800949 57.56725087 -68.92578125 43.26953125 C-68.95478516 42.01785156 -68.98378906 40.76617188 -69.01367188 39.4765625 C-69.10524726 25.88114005 -65.75077124 12.61577049 -56.30078125 2.45703125 C-42.1627123 -10.5403867 -15.11403095 -11.56065169 0 0 Z " fill="#0B1A35" transform="translate(457.61328125,601.73046875)"/>
<path d="M0 0 C0.70549 -0.00438225 1.41098001 -0.00876451 2.1378485 -0.01327956 C4.50764267 -0.02666045 6.87739966 -0.03284474 9.2472229 -0.03897095 C10.94396635 -0.04687231 12.64070812 -0.05514128 14.33744812 -0.06375122 C19.91363929 -0.08996156 25.48983795 -0.1052752 31.06607056 -0.11953735 C32.98490021 -0.12489693 34.90372981 -0.13027444 36.82255936 -0.13566971 C44.8022541 -0.15729458 52.78194681 -0.17603275 60.76166344 -0.1872921 C72.20339643 -0.20354218 83.64479043 -0.23675007 95.08639562 -0.29369295 C103.12893063 -0.3323576 111.17137482 -0.35192051 119.21400034 -0.35721266 C124.0192489 -0.36087013 128.82413581 -0.37293364 133.62928391 -0.4053154 C138.14869871 -0.43533596 142.6675319 -0.44172952 147.18702507 -0.42993164 C148.84588346 -0.42971042 150.50476838 -0.43805574 152.16353416 -0.45558548 C154.42849227 -0.47821925 156.69133073 -0.47001202 158.95629883 -0.45410156 C160.85718293 -0.45906678 160.85718293 -0.45906678 162.79646873 -0.46413231 C166.98800092 0.31881291 168.4659702 1.88018665 171.10513306 5.15390015 C171.73623657 7.29452515 171.73623657 7.29452515 171.73403931 9.40390015 C171.7359729 10.17733765 171.73790649 10.95077515 171.73989868 11.74765015 C171.71605103 12.54171265 171.69220337 13.33577515 171.66763306 14.15390015 C171.67859009 14.94796265 171.68954712 15.74202515 171.70083618 16.56015015 C171.65097918 20.5487099 171.3901768 22.6910807 169.25747681 26.15390015 C165.72831354 29.43326783 162.69646319 29.27680345 158.07315063 29.26742554 C156.83209061 29.26735001 155.59103058 29.26727448 154.31236267 29.26719666 C152.95812948 29.26209005 151.60389669 29.25687406 150.24966431 29.2515564 C148.86389721 29.24969098 147.47812945 29.24826766 146.09236145 29.24726868 C142.44765396 29.24345324 138.80298641 29.23363127 135.15829468 29.2225647 C131.43810568 29.21232964 127.71791021 29.20776657 123.99771118 29.20272827 C116.70016694 29.19200813 109.4026556 29.1749434 102.10513306 29.15390015 C102.11036987 29.86522095 102.11560669 30.57654175 102.1210022 31.30941772 C102.14177324 34.5284029 102.15479364 37.74737398 102.16763306 40.96640015 C102.17601196 42.08595093 102.18439087 43.20550171 102.19302368 44.35897827 C102.19624634 45.4321228 102.19946899 46.50526733 102.20278931 47.6109314 C102.20802612 48.6006897 102.21326294 49.590448 102.21865845 50.61019897 C102.10513306 53.15390015 102.10513306 53.15390015 101.10513306 56.15390015 C95.71777661 58.80777032 90.03142248 58.45077921 84.16763306 58.40390015 C82.72227173 58.41550171 82.72227173 58.41550171 81.24771118 58.42733765 C68.34328847 58.39205556 68.34328847 58.39205556 65.10513306 55.15390015 C65.01765098 53.22722507 64.99815972 51.29738154 65.00747681 49.3687439 C65.01231079 47.61400757 65.01231079 47.61400757 65.01724243 45.82382202 C65.02981079 43.97627319 65.02981079 43.97627319 65.04263306 42.09140015 C65.04714478 40.85583374 65.05165649 39.62026733 65.05630493 38.34725952 C65.06813698 35.28275898 65.08462132 32.21835293 65.10513306 29.15390015 C64.22674271 29.16056198 63.34835236 29.16722382 62.44334412 29.17408752 C54.15974185 29.2342332 45.87621306 29.27989215 37.59244251 29.30933666 C33.33380113 29.32498337 29.0753404 29.34620332 24.81680298 29.38021851 C20.70599787 29.41284767 16.59536638 29.43076065 12.48444176 29.43853188 C10.91716466 29.44406902 9.34989692 29.45488179 7.78269386 29.47109032 C5.58503413 29.49291243 3.38808902 29.49586516 1.19033813 29.49447632 C-0.05986618 29.50113815 -1.3100705 29.50779999 -2.59815979 29.5146637 C-7.18865487 29.01231902 -9.80237947 27.51174016 -12.68002319 23.93515015 C-14.23556688 20.37390543 -14.3284881 17.53273884 -14.33236694 13.65390015 C-14.35170288 12.36483765 -14.37103882 11.07577515 -14.39096069 9.74765015 C-13.82387637 5.63963773 -12.84476632 4.01311546 -9.89486694 1.15390015 C-6.41068063 -0.00749529 -3.67794132 0.01618204 0 0 Z " fill="#0B1935" transform="translate(436.8948669433594,404.8460998535156)"/>
<path d="M0 0 C2.04993487 -0.00218517 4.09933039 -0.02034261 6.14916992 -0.03930664 C7.43887695 -0.04124023 8.72858398 -0.04317383 10.05737305 -0.04516602 C11.24387451 -0.0492749 12.43037598 -0.05338379 13.65283203 -0.05761719 C16.6237793 0.18530273 16.6237793 0.18530273 19.6237793 2.18530273 C19.96435547 5.16625977 19.96435547 5.16625977 19.91674805 8.94311523 C19.9125032 9.60616669 19.90825836 10.26921814 19.90388489 10.95236206 C19.88707901 13.07208715 19.8494263 15.19086461 19.8112793 17.31030273 C19.79623479 18.74648693 19.78254597 20.18268601 19.77026367 21.61889648 C19.73717019 25.14134037 19.6853761 28.6632291 19.6237793 32.18530273 C20.45177048 32.17977198 20.45177048 32.17977198 21.29648876 32.17412949 C34.73395758 32.08575344 48.17137542 32.0198365 61.60907269 31.97805405 C68.10749317 31.95716961 74.60570406 31.92883564 81.10400391 31.88354492 C87.37393571 31.84011877 93.64366577 31.81617208 99.91373634 31.80579376 C102.30717966 31.79839667 104.70061179 31.7839521 107.09396935 31.76238251 C110.44358655 31.73339242 113.7923676 31.72934502 117.14208984 31.73120117 C118.13399323 31.71682007 119.12589661 31.70243896 120.14785767 31.68762207 C124.50460595 31.71378657 126.93950028 31.76415498 130.71638489 34.08868408 C134.01691828 37.71664893 133.83793403 40.79759244 133.8737793 45.49780273 C133.91245117 47.47200195 133.91245117 47.47200195 133.9519043 49.48608398 C133.60906244 53.35121774 132.98457162 55.15709015 130.6237793 58.18530273 C127.24879852 60.43528992 126.12787163 60.4362464 122.17826843 60.43927002 C120.48122269 60.44772949 120.48122269 60.44772949 118.74989319 60.45635986 C116.88668678 60.45028717 116.88668678 60.45028717 114.98583984 60.4440918 C113.6783075 60.44759644 112.37077515 60.45110107 111.02362061 60.45471191 C107.43462928 60.46384014 103.84575277 60.4602892 100.25675941 60.45395374 C96.49993055 60.4488928 92.74311158 60.45358576 88.98628235 60.45672607 C82.67377965 60.46036679 76.36132372 60.45556527 70.04882812 60.44604492 C62.75695273 60.43517428 55.46518931 60.43867537 48.17331666 60.44969773 C41.91078411 60.45878449 35.64828522 60.46004867 29.38574821 60.45482039 C25.6464513 60.45170651 21.90720694 60.45127507 18.16791344 60.45789337 C13.9951761 60.46476245 9.82263045 60.45523136 5.64990234 60.4440918 C3.79580498 60.45016449 3.79580498 60.45016449 1.9042511 60.45635986 C0.7644278 60.45072021 -0.37539551 60.44508057 -1.54975891 60.43927002 C-2.53586812 60.43851597 -3.52197733 60.43776192 -4.53796864 60.43698502 C-7.75270829 60.15191766 -10.38726283 59.39087023 -13.3762207 58.18530273 C-15.53725147 55.30450228 -15.62492268 52.72028887 -15.61914062 49.18896484 C-15.62221725 48.19791245 -15.62529388 47.20686005 -15.62846375 46.18577576 C-15.61768547 44.59032677 -15.61768547 44.59032677 -15.60668945 42.96264648 C-15.60623123 41.86561905 -15.60577301 40.76859161 -15.6053009 39.63832092 C-15.60228159 37.32088132 -15.5944049 35.00344369 -15.58203125 32.68603516 C-15.56377302 29.13298377 -15.56152164 25.58019302 -15.56176758 22.02709961 C-15.55685229 19.77644631 -15.55102392 17.52579478 -15.54418945 15.27514648 C-15.54307663 14.20948959 -15.54196381 13.1438327 -15.54081726 12.04588318 C-15.53124748 10.56403282 -15.53124748 10.56403282 -15.52148438 9.05224609 C-15.51767258 8.18272812 -15.51386078 7.31321014 -15.50993347 6.41734314 C-15.3762207 4.18530273 -15.3762207 4.18530273 -14.3762207 1.18530273 C-10.15985275 -0.92288124 -4.63803577 -0.00055552 0 0 Z " fill="#0A1833" transform="translate(458.376220703125,446.814697265625)"/>
<path d="M0 0 C1.0717673 -0.00701996 1.0717673 -0.00701996 2.16518646 -0.01418173 C4.55969965 -0.02614895 6.95364234 -0.01666803 9.34815979 -0.00723267 C11.06475661 -0.01129765 12.78135082 -0.01663911 14.49794006 -0.02316284 C19.16117846 -0.03685204 23.82421798 -0.03153091 28.4874599 -0.02202559 C33.3658418 -0.01443608 38.24420655 -0.02147274 43.12258911 -0.02618408 C51.31646281 -0.03164422 59.51025543 -0.02444379 67.70411682 -0.01016235 C77.1778919 0.00615921 86.65147324 0.00088028 96.1252436 -0.01564157 C104.25698678 -0.02925558 112.38867163 -0.03117635 120.52042252 -0.02332556 C125.37807233 -0.01864788 130.2356311 -0.01802671 135.09327507 -0.02793503 C139.66105338 -0.03660096 144.22858198 -0.03058958 148.79633331 -0.01325226 C150.47290444 -0.00928519 152.14949657 -0.01042523 153.82605934 -0.01704025 C156.1146293 -0.02523745 158.402399 -0.01495689 160.69091797 0 C162.61197688 0.00169662 162.61197688 0.00169662 164.57184505 0.00342751 C169.15014495 0.52136598 171.69706156 2.16906168 174.90895081 5.38095093 C175.61275067 12.93994426 176.0100401 20.75611438 171.90895081 27.38095093 C168.9533547 28.85874898 166.31373353 28.51037944 163.01371765 28.5146637 C161.93732995 28.51806203 161.93732995 28.51806203 160.83919704 28.52152902 C158.42249076 28.52788471 156.00584033 28.52703865 153.58912659 28.5262146 C151.86135281 28.52920513 150.13357971 28.53260741 148.4058075 28.53639221 C143.70332442 28.54524758 139.00085953 28.54757098 134.29836893 28.548208 C130.37679567 28.54915596 126.45522667 28.55283299 122.53365505 28.55638009 C113.28326317 28.56453062 104.03288102 28.5669638 94.78248596 28.56625366 C85.23152222 28.56565281 75.68061494 28.57620466 66.12966549 28.59199733 C57.93769569 28.60506157 49.74574437 28.61043802 41.55376422 28.60979825 C36.65756363 28.60954292 31.76141318 28.61241337 26.86522293 28.6229763 C22.26059994 28.63263846 17.65607523 28.63274944 13.05144882 28.62545967 C11.35994066 28.62441146 9.66842645 28.6267907 7.97692871 28.63282013 C5.67055302 28.64050974 3.3645193 28.63591552 1.05815125 28.62818909 C-0.87924832 28.62900624 -0.87924832 28.62900624 -2.85578728 28.6298399 C-5.92852496 28.39345393 -7.61606779 28.17225902 -10.09104919 26.38095093 C-13.49618424 19.57068084 -14.23393696 12.85726134 -12.34104919 5.44345093 C-9.23027922 0.31068047 -5.74645494 0.00507657 0 0 Z " fill="#0A1934" transform="translate(589.0910491943359,623.6190490722656)"/>
<path d="M0 0 C1.03705078 -0.03673828 2.07410156 -0.07347656 3.14257812 -0.11132812 C10.35430192 -0.15301439 10.35430192 -0.15301439 13.38793945 1.64355469 C15.98649815 4.34204024 16.8420278 7.03299638 17.05078125 10.6484375 C17.01797135 12.07894898 16.95894891 13.50907704 16.875 14.9375 C16.85244141 15.67355469 16.82988281 16.40960937 16.80664062 17.16796875 C16.74822927 18.96703842 16.65856337 20.76504753 16.5625 22.5625 C17.20799805 22.53631592 17.85349609 22.51013184 18.51855469 22.4831543 C21.44962117 22.37907561 24.38029909 22.3141419 27.3125 22.25 C28.32828125 22.20810547 29.3440625 22.16621094 30.390625 22.12304688 C37.93430616 21.99897317 37.93430616 21.99897317 41.21875 24.9453125 C44.37922373 31.10088634 44.58699004 38.85857445 42.75 45.5 C41.43258771 47.78813713 40.71408352 49.0064597 38.5625 50.5625 C35.79502357 50.86380946 33.25154259 50.98257925 30.48266602 50.96655273 C29.65959961 50.97341599 28.8365332 50.98027924 27.98852539 50.98735046 C25.26431082 51.0056709 22.54066929 51.00177349 19.81640625 50.99609375 C17.92455355 51.00065317 16.0327025 51.00595802 14.14085388 51.01197815 C10.17383093 51.02091965 6.20700918 51.01847448 2.23999023 51.00854492 C-2.84578158 50.99705613 -7.93085901 51.01726002 -13.01653957 51.04646206 C-16.92418333 51.06480186 -20.83166003 51.064536 -24.73933601 51.05882454 C-26.61444129 51.05867104 -28.48955769 51.06473893 -30.36462212 51.07711601 C-32.98628248 51.09198182 -35.60665174 51.08138193 -38.22827148 51.06420898 C-39.00399002 51.07387695 -39.77970856 51.08354492 -40.57893372 51.09350586 C-44.12484943 51.04482822 -46.06583773 50.8478563 -48.91822815 48.65783691 C-50.60035981 46.33788834 -50.95053466 45.24166657 -50.96875 42.41015625 C-50.97390625 41.63349609 -50.9790625 40.85683594 -50.984375 40.05664062 C-50.96117187 38.85297852 -50.96117187 38.85297852 -50.9375 37.625 C-50.95296875 36.82642578 -50.9684375 36.02785156 -50.984375 35.20507812 C-50.95750871 31.15162638 -50.75032321 29.05545296 -48.53125 25.55859375 C-44.98894086 22.18150425 -42.7104294 22.44392205 -37.8984375 22.46484375 C-36.59648437 22.46806641 -35.29453125 22.47128906 -33.953125 22.47460938 C-32.57291601 22.48296534 -31.19270768 22.49143029 -29.8125 22.5 C-28.42448074 22.50501499 -27.03645978 22.5095779 -25.6484375 22.51367188 C-22.24474868 22.52549024 -18.84114561 22.54196566 -15.4375 22.5625 C-15.45844727 22.00264404 -15.47939453 21.44278809 -15.50097656 20.8659668 C-15.58416202 18.32749414 -15.63616381 15.789308 -15.6875 13.25 C-15.72101563 12.36892578 -15.75453125 11.48785156 -15.7890625 10.58007812 C-15.80195313 9.73251953 -15.81484375 8.88496094 -15.828125 8.01171875 C-15.84907227 7.23143311 -15.87001953 6.45114746 -15.89160156 5.6472168 C-15.4375 3.5625 -15.4375 3.5625 -13.7409668 1.81591797 C-9.45072626 -0.51859129 -4.78148382 0.00888201 0 0 Z " fill="#0B1A34" transform="translate(435.4375,534.4375)"/>
<path d="M0 0 C2.1633006 2.74018076 2.92352448 4.48652151 3.4375 7.9375 C2.84648522 12.07460348 1.80203494 13.86438947 -1 17 C-11.24949018 23.6796498 -21.73976657 24.36765076 -33.6875 24.3125 C-34.93176758 24.30758545 -36.17603516 24.3026709 -37.45800781 24.29760742 C-50.4390382 24.13172925 -62.01058081 23.24041114 -72 14.1875 C-73.54646978 10.80459735 -73.6253516 7.60116264 -73 4 C-69.99765935 -1.5042912 -64.76375827 -3.7528375 -59.01953125 -5.65625 C-41.23696055 -10.48345482 -15.28620185 -11.45350984 0 0 Z " fill="#F9F9F9" transform="translate(552,347)"/>
<path d="M0 0 C1.28414795 0.00491455 2.5682959 0.0098291 3.89135742 0.01489258 C16.12272234 0.1661077 27.8026415 0.50481037 37.8125 8.3125 C39.38185594 11.45121188 39.16451103 13.85105822 38.8125 17.3125 C34.22235472 23.89170824 26.09505612 26.00816302 18.5625 27.5625 C2.09401773 29.91514032 -20.7242738 30.85822929 -35.1875 21.3125 C-37.70044365 18.95661533 -38.10873199 17.77526207 -38.6875 14.375 C-37.99334586 10.12330592 -36.57901548 8.94265486 -33.1875 6.3125 C-22.78951346 0.39711002 -11.72161374 -0.05256329 0 0 Z " fill="#F9F9F9" transform="translate(717.1875,459.6875)"/>
<path d="M0 0 C4.78433309 2.88904054 8.38092261 7.16620138 10.4375 12.375 C11.27244438 20.00375497 11.73312417 27.52656711 6.8671875 33.86328125 C1.60492089 39.42748119 -3.30210267 41.79897061 -10.83984375 42.3984375 C-18.07953823 42.33611588 -23.93957694 39.88449627 -29.16015625 34.921875 C-33.88013941 29.71543118 -34.89973558 24.55947528 -34.765625 17.7421875 C-34.14064082 10.458718 -31.20840986 6.46861028 -25.6953125 1.8203125 C-18.50896709 -3.04955527 -7.90782267 -3.62190351 0 0 Z " fill="#0B1A35" transform="translate(854.5625,682.625)"/>
<path d="M0 0 C4.43757552 2.30412575 5.86655751 3.51699134 7.4375 8.3125 C9.21845067 17.59779835 10.25208787 29.52395384 5.49609375 38.015625 C3.30267419 40.95852021 1.66279674 42.26033046 -1.75 43.6875 C-6.8727293 44.41277464 -11.84374603 44.7331107 -16.3125 41.8125 C-21.78503883 37.04156871 -21.92846849 32.76273057 -22.75 25.6875 C-23.84486376 9.30833814 -23.84486376 9.30833814 -19.1640625 3.83203125 C-13.21239187 -1.45415722 -7.72109183 -2.70238214 0 0 Z " fill="#F9F9F9" transform="translate(438.75,623.3125)"/>
<path d="M0 0 C25.08 0 50.16 0 76 0 C76 4.29 76 8.58 76 13 C50.92 13 25.84 13 0 13 C0 8.71 0 4.42 0 0 Z " fill="#FFFFFF" transform="translate(634,687)"/>
<path d="M0 0 C37.65815055 -0.20638953 37.65815055 -0.20638953 55 1 C55 1.33 55 1.66 55 2 C37.51 2 20.02 2 2 2 C2 4.97 2 7.94 2 11 C15.86 11 29.72 11 44 11 C44 11.33 44 11.66 44 12 C29.48 12.33 14.96 12.66 0 13 C0 8.71 0 4.42 0 0 Z " fill="#D9DCE1" transform="translate(732,390)"/>
<path d="M0 0 C0.33 0 0.66 0 1 0 C1 10.89 1 21.78 1 33 C-2 30 -2 30 -2.37231445 27.22851562 C-2.3693335 26.13216797 -2.36635254 25.03582031 -2.36328125 23.90625 C-2.36263672 22.71128906 -2.36199219 21.51632812 -2.36132812 20.28515625 C-2.34521484 19.03605469 -2.32910156 17.78695313 -2.3125 16.5 C-2.31572266 15.25089844 -2.31894531 14.00179688 -2.32226562 12.71484375 C-2.26700255 3.40050383 -2.26700255 3.40050383 0 0 Z " fill="#DBDDE2" transform="translate(442,452)"/>
<path d="M0 0 C2.31 0 4.62 0 7 0 C6.67 0.99 6.34 1.98 6 3 C1.05 3 -3.9 3 -9 3 C-9 2.67 -9 2.34 -9 2 C-4.545 1.505 -4.545 1.505 0 1 C0 0.67 0 0.34 0 0 Z " fill="#FFFFFF" transform="translate(733,434)"/>
<path d="M0 0 C0.99 0.33 1.98 0.66 3 1 C3 5.29 3 9.58 3 14 C2.67 14 2.34 14 2 14 C-0.29612756 4.58997722 -0.29612756 4.58997722 0 0 Z " fill="#FFFFFF" transform="translate(742,666)"/>
<path d="M0 0 C1.125 3.75 1.125 3.75 0 6 C-0.2275015 7.87056791 -0.40962811 9.74685958 -0.5625 11.625 C-0.64628906 12.62789063 -0.73007812 13.63078125 -0.81640625 14.6640625 C-0.87699219 15.43492187 -0.93757812 16.20578125 -1 17 C-1.33 17 -1.66 17 -2 17 C-2.05383848 14.54137599 -2.09359038 12.0839245 -2.125 9.625 C-2.14175781 8.92632812 -2.15851562 8.22765625 -2.17578125 7.5078125 C-2.19344267 5.67102514 -2.10303261 3.83398037 -2 2 C-1.34 1.34 -0.68 0.68 0 0 Z " fill="#070C1E" transform="translate(627,406)"/>
<path d="M0 0 C0 0.66 0 1.32 0 2 C-2.64 2.33 -5.28 2.66 -8 3 C-8.33 2.01 -8.66 1.02 -9 0 C-3.375 -1.125 -3.375 -1.125 0 0 Z " fill="#FFFFFF" transform="translate(554,394)"/>
</svg>
